Coordinates
version=1
nRows=21
nColumns=12
inDegrees=yes

Units are S.I. units (second, meters, Newtons, ...)
Angles are in degrees

endheader
time	SC_y	SC_z	SC_x	AC_y	AC_z	AC_x	GH_y	GH_z	GH_yy	EL_x	PS_y
       0.0              -13.21           1.09          78.72          41.28        -0.3808          14.56          53.74          60.16          77.74          73.62          38.25
  0.001777              -13.21          1.095          78.72          41.29        -0.3801          14.56          53.75          60.16          77.75          73.62          38.26
  0.003553              -13.21          1.101          78.71          41.29        -0.3793          14.55          53.77          60.17          77.75          73.63          38.27
   0.00533              -13.21          1.107          78.71          41.29        -0.3784          14.55          53.78          60.17          77.75          73.63          38.29
  0.007107              -13.22          1.114          78.71           41.3        -0.3775          14.54           53.8          60.18          77.76          73.63           38.3
  0.008883              -13.22          1.121           78.7           41.3        -0.3766          14.53          53.82          60.18          77.76          73.64          38.32
   0.01066              -13.22          1.128           78.7          41.31        -0.3756          14.53          53.84          60.18          77.77          73.64          38.34
   0.01244              -13.22          1.136          78.69          41.31        -0.3745          14.52          53.86          60.19          77.77          73.65          38.35
   0.01421              -13.22          1.144          78.69          41.31        -0.3733          14.51          53.88          60.19          77.78          73.65          38.37
   0.01599              -13.22          1.154          78.68          41.32        -0.3721          14.51           53.9           60.2          77.78          73.66          38.39
   0.01777              -13.23          1.163          78.67          41.33        -0.3707           14.5          53.93          60.21          77.79          73.66          38.42
   0.01954              -13.23          1.174          78.67          41.33        -0.3693          14.49          53.95          60.21          77.79          73.67          38.44
   0.02132              -13.23          1.185          78.66          41.34        -0.3677          14.48          53.98          60.22           77.8          73.68          38.47
    0.0231              -13.23          1.198          78.65          41.35        -0.3661          14.47          54.01          60.23          77.81          73.68           38.5
   0.02487              -13.24          1.211          78.64          41.35        -0.3643          14.46          54.05          60.23          77.82          73.69          38.53
   0.02665              -13.24          1.226          78.63          41.36        -0.3623          14.44          54.09          60.24          77.82           73.7          38.56
   0.02843              -13.24          1.241          78.62          41.37        -0.3601          14.43          54.13          60.25          77.83          73.71          38.59
    0.0302              -13.25          1.258          78.61          41.38        -0.3578          14.42          54.17          60.26          77.84          73.72          38.63
   0.03198              -13.25          1.277           78.6          41.39        -0.3553           14.4          54.22          60.27          77.86          73.73          38.68
   0.03376              -13.26          1.298          78.58           41.4        -0.3525          14.38          54.27          60.29          77.87          73.74          38.72
   0.03553              -13.26           1.32          78.57          41.42        -0.3494          14.36          54.33           60.3          77.88          73.75          38.77
